<?xml version="1.0" encoding="UTF-8"?>
<svg width="256px" height="256px" viewBox="0 0 256 256" version="1.1" xmlns="http://www.w3.org/2000/svg">
    <g stroke="none" stroke-width="1" fill="none" fill-rule="evenodd">
        <path d="M128,168 C168.869071,168 202,134.869071 202,94 C202,53.1309285 168.869071,20 128,20 C87.1309285,20 54,53.1309285 54,94 C54,134.869071 87.1309285,168 128,168 Z M128,140 C153.405098,140 174,119.405098 174,94 C174,68.5949015 153.405098,48 128,48 C102.594902,48 82,68.5949015 82,94 C82,119.405098 102.594902,140 128,140 Z" fill="#2496ED"/>
        <path d="M128,236 C189.855892,236 240,185.855892 240,124 C240,62.1441084 189.855892,12 128,12 C66.1441084,12 16,62.1441084 16,124 C16,185.855892 66.1441084,236 128,236 Z M128,208 C174.391919,208 212,170.391919 212,124 C212,77.6080813 174.391919,40 128,40 C81.6080813,40 44,77.6080813 44,124 C44,170.391919 81.6080813,208 128,208 Z" fill="#2496ED"/>
    </g>
</svg>
