<?xml version="1.0" encoding="UTF-8"?>
<svg width="256px" height="256px" viewBox="0 0 256 256" version="1.1" xmlns="http://www.w3.org/2000/svg">
    <g stroke="none" stroke-width="1" fill="none" fill-rule="evenodd">
        <path d="M128,32 C94,32 73,48 64,80 C76,64 90,58 106,64 C115,67 121,74 128,81 C139,92 152,104 180,104 C214,104 235,88 244,56 C232,72 218,78 202,72 C193,69 187,62 180,55 C169,44 156,32 128,32 Z M76,152 C42,152 21,168 12,200 C24,184 38,178 54,184 C63,187 69,194 76,201 C87,212 100,224 128,224 C162,224 183,208 192,176 C180,192 166,198 150,192 C141,189 135,182 128,175 C117,164 104,152 76,152 Z" fill="#06B6D4"/>
    </g>
</svg>
