<?xml version="1.0" encoding="UTF-8"?>
<svg width="256px" height="256px" viewBox="0 0 256 256" version="1.1" xmlns="http://www.w3.org/2000/svg">
    <g stroke="none" stroke-width="1" fill="none" fill-rule="evenodd">
        <path d="M128,32 C82,32 84,52 84,52 L84,76 L130,76 L130,84 L60,84 C60,84 32,81 32,128 C32,175 60,172 60,172 L80,172 L80,146 C80,146 79,118 108,118 L154,118 C154,118 180,119 180,94 L180,58 C180,58 184,32 128,32 Z M100,64 C95.581722,64 92,60.418278 92,56 C92,51.581722 95.581722,48 100,48 C104.418278,48 108,51.581722 108,56 C108,60.418278 104.418278,64 100,64 Z" fill="#3572A5"/>
        <path d="M128,224 C174,224 172,204 172,204 L172,180 L126,180 L126,172 L196,172 C196,172 224,175 224,128 C224,81 196,84 196,84 L176,84 L176,110 C176,110 177,138 148,138 L102,138 C102,138 76,137 76,162 L76,198 C76,198 72,224 128,224 Z M156,192 C160.418278,192 164,195.581722 164,200 C164,204.418278 160.418278,208 156,208 C151.581722,208 148,204.418278 148,200 C148,195.581722 151.581722,192 156,192 Z" fill="#FFD43B"/>
    </g>
</svg>
