<?xml version="1.0" encoding="UTF-8"?>
<svg width="256px" height="256px" viewBox="0 0 256 256" version="1.1" xmlns="http://www.w3.org/2000/svg">
    <g stroke="none" stroke-width="1" fill="none" fill-rule="evenodd">
        <circle fill="#61DAFB" cx="128" cy="128" r="20"/>
        <path d="M128,160 C177.019336,160 216,145.464844 216,128 C216,110.535156 177.019336,96 128,96 C78.9806641,96 40,110.535156 40,128 C40,145.464844 78.9806641,160 128,160 Z" stroke="#61DAFB" stroke-width="12"/>
        <path d="M98.5,145.5 C123.009668,186.671875 152.638672,213.832031 170.5,206.5 C188.361328,199.167969 188.361328,156.832031 170.5,115.5 C152.638672,74.1679687 123.009668,47.328125 98.5,54.5 C73.9903321,61.671875 73.9903321,104.328125 98.5,145.5 Z" stroke="#61DAFB" stroke-width="12"/>
        <path d="M98.5,115.5 C73.9903321,156.832031 73.9903321,199.167969 98.5,206.5 C123.009668,213.832031 152.638672,186.671875 170.5,145.5 C188.361328,104.328125 188.361328,61.671875 170.5,54.5 C152.638672,47.328125 123.009668,74.1679687 98.5,115.5 Z" stroke="#61DAFB" stroke-width="12"/>
    </g>
</svg>
