<?xml version="1.0" encoding="UTF-8"?>
<svg id="Layer_2" xmlns="http://www.w3.org/2000/svg" viewBox="0 0 489.84 119.85">
  <g id="Layer_2-2" data-name="Layer_2">
    <g>
      <path d="M0,59.77C0,25.8,25.16,0,58.48,0s58.48,25.8,58.48,59.77-25.16,60.09-58.48,60.09S0,93.74,0,59.77ZM98.7,59.77c0-24.68-15.86-43.9-40.22-43.9S18.27,35.09,18.27,59.77s15.86,44.22,40.22,44.22,40.22-19.55,40.22-44.22Z"/>
      <path d="M143.25,117.45V2.4h17.63v53.2L209.59,2.4h20.35l-51.27,56.4,52.56,58.64h-22.11l-48.23-53.36v53.36h-17.63Z"/>
      <path d="M254.77,117.45V2.4h17.63v115.05h-17.63Z"/>
      <path d="M305.41,117.45V2.4h17.63v53.2L371.74,2.4h20.35l-51.27,56.4,52.56,58.64h-22.11l-48.23-53.36v53.36h-17.63Z"/>
      <path d="M489.84,117.45h-72.9V2.4h71.78v15.38h-54.16v32.69h49.35v15.38h-49.35v36.21h55.28v15.38Z"/>
    </g>
  </g>
</svg>