<?xml version="1.0" encoding="UTF-8"?>
<svg id="Layer_2" xmlns="http://www.w3.org/2000/svg" viewBox="0 0 444.08 512.68">
  <g id="Layer_1-2" data-name="Layer_1">
    <g>
      <g id="logo">
        <g>
          <path d="M298.3,21.22C278.05,8.97,255.13,1.81,231.5.3c-2.56-.17-5.12-.26-7.68-.29-.52-.01-1.06-.02-1.58-.02h-1.73c-2.57.03-5.14.13-7.7.3-23.85,1.48-46.96,8.71-67.36,21.13l-4.34,2.64,33.32,33.32,2.82-2.82,44.91-44.91,47.36,47.36,2.82-2.82,26.72-26.73,3.6-3.6-4.36-2.64Z"/>
          <path d="M369.53,147.39v.37l-.29,8.98c-1.49,23.85-8.72,46.96-21.13,67.35l-2.65,4.34-3.59-3.59-29.53-29.53,2.82-2.82,44.91-44.91-47.73-47.73,33.18-33.18,2.64,4.35c12.41,20.41,19.62,43.54,21.08,67.4l.29,8.99Z"/>
          <path d="M302.56,271.18l-4.36,2.64c-20.27,12.24-43.21,19.38-66.86,20.86l-9.02.3h-.31l-9.05-.29c-23.85-1.45-46.99-8.67-67.4-21.08l-4.35-2.64,3.6-3.59,29.62-29.62,47.73,47.73,44.53-44.53,2.82-2.82,33.05,33.05Z"/>
          <path d="M128.77,192.11l2.83,2.83-2.83,2.81-26.75,26.75-3.61,3.61-2.64-4.34c-12.25-20.26-19.4-43.18-20.89-66.82-.18-2.56-.29-5.14-.31-7.74,0-.53-.02-1.04-.02-1.58v-.14c0-.51,0-1.02.02-1.54.02-2.58.12-5.18.29-7.76,1.47-23.64,8.6-46.58,20.85-66.84l2.64-4.36,33.25,33.25-47.36,47.36,44.53,44.53Z"/>
        </g>
        <g>
          <path d="M266.23,74.33c-10.67-6.45-22.61-10.46-34.98-11.8-2.48-.27-4.97-.43-7.48-.48-.55-.01-1.1-.02-1.65-.02h-.09c-.54,0-1.07,0-1.6.02l-7.49.47c-12.49,1.33-24.54,5.38-35.28,11.93l-4.34,2.64,3.59,3.59,15.27,15.27,2.82,2.82,2.82-2.82,24.27-24.28,24.06,24.06,2.82,2.82,2.82-2.82,15.17-15.18,3.6-3.6-4.36-2.64Z"/>
          <path d="M307.5,147.43v.22l-.48,8.94c-1.33,12.49-5.39,24.54-11.93,35.28l-2.64,4.34-3.59-3.59-15.16-15.16-2.82-2.82,2.82-2.82,24.27-24.28-24.28-24.28-2.82-2.82,2.82-2.82,18.79-18.79,2.64,4.34c6.54,10.75,10.59,22.82,11.91,35.31.31,2.97.47,5.95.47,8.95Z"/>
          <path d="M270.53,218.04l-4.36,2.64c-10.67,6.45-22.63,10.45-35,11.77l-8.97.48h-.18c-3.01,0-6.02-.16-8.99-.47-12.49-1.32-24.55-5.37-35.31-11.9l-4.35-2.64,3.59-3.59,15.21-15.21,2.82-2.82,2.82,2.82,24.28,24.28,26.88-26.88,21.54,21.54Z"/>
          <path d="M146.25,147.53l24.06-24.06,2.82-2.82-21.65-21.65-2.64,4.36c-6.44,10.67-10.44,22.62-11.77,34.99-.27,2.5-.43,5.01-.47,7.54-.01.53-.02,1.06-.02,1.59v.07c0,.54,0,1.07.02,1.6.05,2.53.21,5.04.48,7.54,1.33,12.37,5.34,24.31,11.8,34.97l2.64,4.36,3.6-3.6,15.19-15.19,2.82-2.82-2.82-2.83-24.06-24.06Z"/>
        </g>
        <path d="M256.35,147.49c0,8.95-3.43,17.11-9.05,23.21l-1.96,1.96s-.05.05-.07.07c-6.11,5.62-14.27,9.05-23.21,9.05s-16.89-3.34-22.96-8.82l-2.52-2.52c-5.49-6.07-8.82-14.13-8.82-22.96s3.51-17.31,9.26-23.44l1.6-1.6c6.13-5.74,14.37-9.26,23.44-9.26s18.05,3.84,24.25,10.04c6.21,6.21,10.05,14.78,10.05,24.26Z"/>
      </g>
      <g>
        <path d="M0,458.21c0-30.8,22.81-54.18,53.02-54.18s53.02,23.39,53.02,54.18-22.81,54.47-53.02,54.47S0,489.01,0,458.21ZM89.48,458.21c0-22.37-14.38-39.8-36.46-39.8s-36.46,17.43-36.46,39.8,14.38,40.09,36.46,40.09,36.46-17.72,36.46-40.09Z"/>
        <path d="M129.87,510.51v-104.3h15.98v48.23l44.16-48.23h18.45l-46.48,51.13,47.65,53.17h-20.05l-43.72-48.37v48.37h-15.98Z"/>
        <path d="M230.98,510.51v-104.3h15.98v104.3h-15.98Z"/>
        <path d="M276.88,510.51v-104.3h15.98v48.23l44.16-48.23h18.45l-46.48,51.13,47.65,53.17h-20.05l-43.72-48.37v48.37h-15.98Z"/>
        <path d="M444.08,510.51h-66.09v-104.3h65.08v13.94h-49.1v29.63h44.74v13.94h-44.74v32.83h50.12v13.95Z"/>
      </g>
    </g>
  </g>
</svg>