<?xml version="1.0" encoding="UTF-8"?>
<svg id="Layer_2" xmlns="http://www.w3.org/2000/svg" viewBox="0 0 504 504">
  <defs>
    <style>
      .cls-1 {
        fill: #e3ee32;
      }
    </style>
  </defs>
  <g id="Layer_1-2" data-name="Layer_1">
    <g id="logo">
      <g>
        <path class="cls-1" d="M382.3,36.25C347.7,15.33,308.53,3.1,268.15.52c-4.37-.28-8.74-.45-13.13-.49-.9-.02-1.8-.03-2.7-.03h-2.94l-.02.02c-4.4.04-8.78.2-13.16.49-40.75,2.52-80.24,14.88-115.09,36.1l-7.42,4.51,56.93,56.93,4.82-4.82L252.19,16.49l80.92,80.92,4.82-4.82,45.66-45.67,6.15-6.15-7.45-4.51ZM247.37,11.68l-.03-.03.03.02h0ZM252.19,6.84l-.02-.02h.04l-.02.02Z"/>
        <path class="cls-1" d="M504,251.83v.63l-.5,15.34c-2.54,40.75-14.9,80.25-36.11,115.08l-4.52,7.42-6.13-6.14-50.45-50.45,4.82-4.82,76.73-76.74-81.56-81.56,56.7-56.7,4.51,7.43c21.2,34.87,33.53,74.4,36.02,115.17l.49,15.36Z"/>
        <path class="cls-1" d="M389.58,463.35l-7.46,4.5c-34.63,20.91-73.83,33.11-114.24,35.64l-15.42.51h-.54l-15.47-.49c-40.76-2.49-80.29-14.81-115.17-36.02l-7.43-4.51,6.15-6.14,50.61-50.61,81.56,81.56,76.09-76.08,4.82-4.82,56.47,56.47Z"/>
        <path class="cls-1" d="M16.54,252.14l-2.42,2.42,2.41-2.42h0l76.09-76.08,4.82-4.82-56.81-56.81-4.51,7.46C15.22,156.51,3.04,195.7.51,236.1c-.28,4.41-.45,8.83-.49,13.26-.02.88-.02,1.75-.02,2.63v.22c0,.91,0,1.8.03,2.71.04,4.42.2,8.84.5,13.23,2.57,40.38,14.79,79.54,35.73,114.14l4.5,7.45,6.16-6.16,45.72-45.71,4.82-4.82-4.82-4.82L16.54,252.14ZM3.41,253.48v-1.27c0,.43,0,.85,0,1.28h0ZM3.41,252.07v-1.27h0c0,.42,0,.84,0,1.27ZM6.82,252.21v-.14l.07.07-.07.07Z"/>
      </g>
      <g>
        <path class="cls-1" d="M327.5,127c-18.22-11.02-38.63-17.87-59.76-20.15-4.24-.46-8.5-.73-12.78-.82-.94-.02-1.88-.03-2.82-.03h-.15c-.92,0-1.82,0-2.74.03l-12.81.8c-21.33,2.27-41.93,9.2-60.29,20.38l-7.42,4.51,6.14,6.14,26.1,26.1,4.82,4.82,4.82-4.82,41.47-41.48,41.12,41.12,4.82,4.82,4.82-4.82,25.91-25.93,6.16-6.15-7.45-4.51ZM252.1,112.83h0s.02,0,.02,0h0Z"/>
        <path class="cls-1" d="M398.01,251.9v.37l-.83,15.28c-2.27,21.33-9.21,41.94-20.39,60.29l-4.51,7.42-6.13-6.14-25.9-25.9-4.82-4.82,4.82-4.82,41.47-41.48-41.48-41.48-4.82-4.82,4.82-4.82,32.1-32.1,4.51,7.42c11.18,18.37,18.1,38.98,20.35,60.33.54,5.07.81,10.17.81,15.3Z"/>
        <path class="cls-1" d="M334.84,372.56l-7.46,4.5c-18.23,11.01-38.66,17.85-59.8,20.12l-15.32.83h-.31c-5.15,0-10.28-.27-15.36-.81-21.34-2.25-41.95-9.17-60.33-20.34l-7.43-4.51,6.14-6.14,25.99-25.99,4.82-4.82,4.82,4.82,41.49,41.48,45.93-45.93,36.8,36.8Z"/>
        <path class="cls-1" d="M122.49,252.08l41.12-41.11,4.82-4.82-36.99-36.99-4.51,7.46c-11,18.22-17.84,38.64-20.11,59.78-.46,4.27-.73,8.57-.81,12.88-.02.91-.03,1.81-.03,2.72v.13c0,.92,0,1.82.04,2.74.08,4.32.35,8.62.82,12.88,2.28,21.13,9.13,41.54,20.15,59.75l4.5,7.45,6.16-6.15,25.95-25.95,4.82-4.81-4.82-4.83-41.12-41.11ZM112.81,252.12v-.08l.04.04-.04.04Z"/>
      </g>
      <path class="cls-1" d="M310.62,252c0,15.29-5.87,29.23-15.47,39.67l-3.35,3.35s-.08.08-.13.13c-10.44,9.6-24.37,15.47-39.67,15.47s-28.86-5.7-39.24-15.08l-4.31-4.31c-9.38-10.38-15.08-24.14-15.08-39.23s6-29.57,15.83-40.05l2.74-2.74c10.48-9.81,24.56-15.82,40.05-15.82s30.84,6.56,41.44,17.16c10.61,10.61,17.17,25.26,17.17,41.45Z"/>
    </g>
  </g>
</svg>